<svg xmlns="http://www.w3.org/2000/svg" xmlns:xlink="http://www.w3.org/1999/xlink" width="500" zoomAndPan="magnify" viewBox="0 0 375 374.999991" height="500" preserveAspectRatio="xMidYMid meet" version="1.0"><defs><g/><clipPath id="f9e2994c03"><path d="M 1.464844 0 L 373.535156 0 C 373.921875 0 374.296875 0.15625 374.570312 0.429688 C 374.84375 0.703125 375 1.078125 375 1.464844 L 375 373.535156 C 375 373.921875 374.84375 374.296875 374.570312 374.570312 C 374.296875 374.84375 373.921875 375 373.535156 375 L 1.464844 375 C 1.078125 375 0.703125 374.84375 0.429688 374.570312 C 0.15625 374.296875 0 373.921875 0 373.535156 L 0 1.464844 C 0 1.078125 0.15625 0.703125 0.429688 0.429688 C 0.703125 0.15625 1.078125 0 1.464844 0 Z M 1.464844 0 " clip-rule="nonzero"/></clipPath><clipPath id="3a50abd3b9"><path d="M 187.5 0 C 83.945312 0 0 83.945312 0 187.5 C 0 291.054688 83.945312 375 187.5 375 C 291.054688 375 375 291.054688 375 187.5 C 375 83.945312 291.054688 0 187.5 0 Z M 187.5 0 " clip-rule="nonzero"/></clipPath></defs><g clip-path="url(#f9e2994c03)"><rect x="-37.5" width="450" fill="#e21c23" y="-37.499999" height="449.999989" fill-opacity="1"/></g><g clip-path="url(#3a50abd3b9)"><path stroke-linecap="butt" transform="matrix(0.75, 0, 0, 0.75, 0.0000045, 0.000000000000127898)" fill="none" stroke-linejoin="miter" d="M 249.999994 -0.00000000000017053 C 111.927078 -0.00000000000017053 -0.000006 111.927084 -0.000006 250 C -0.000006 388.072917 111.927078 500.000001 249.999994 500.000001 C 388.072911 500.000001 499.999995 388.072917 499.999995 250 C 499.999995 111.927084 388.072911 -0.00000000000017053 249.999994 -0.00000000000017053 Z M 249.999994 -0.00000000000017053 " stroke="#ffffff" stroke-width="110" stroke-opacity="1" stroke-miterlimit="4"/></g><path stroke-linecap="butt" transform="matrix(0.556994, 0.502252, -0.502252, 0.556994, 65.582909, 55.510388)" fill="none" stroke-linejoin="miter" d="M -0.000920176 24.001999 L 472.364701 24.001111 " stroke="#ffffff" stroke-width="48" stroke-opacity="1" stroke-miterlimit="4"/><g fill="#ffffff" fill-opacity="1"><g transform="translate(74.407529, 300.652354)"><g><path d="M 170.796875 -121.859375 L 170.796875 -121.515625 C 175.972656 -119.492188 181.820312 -116.234375 188.34375 -111.734375 C 194.875 -107.234375 200.554688 -101.269531 205.390625 -93.84375 C 210.234375 -86.414062 212.65625 -76.960938 212.65625 -65.484375 C 212.65625 -49.285156 208.71875 -36.398438 200.84375 -26.828125 C 192.96875 -17.265625 182.613281 -10.398438 169.78125 -6.234375 C 156.957031 -2.078125 143.117188 0 128.265625 0 L 36.125 0 C 33.414062 0 31.5 -0.445312 30.375 -1.34375 C 29.25 -2.25 28.6875 -4.164062 28.6875 -7.09375 L 28.6875 -229.1875 C 28.6875 -231.894531 29.191406 -233.753906 30.203125 -234.765625 C 31.222656 -235.773438 33.195312 -236.28125 36.125 -236.28125 L 119.828125 -236.28125 C 129.503906 -236.28125 139.289062 -235.15625 149.1875 -232.90625 C 159.09375 -230.65625 168.207031 -227.054688 176.53125 -222.109375 C 184.863281 -217.160156 191.5625 -210.460938 196.625 -202.015625 C 201.6875 -193.578125 204.21875 -183.171875 204.21875 -170.796875 C 204.21875 -161.796875 202.414062 -154.085938 198.8125 -147.671875 C 195.21875 -141.265625 190.882812 -135.976562 185.8125 -131.8125 C 180.75 -127.644531 175.742188 -124.328125 170.796875 -121.859375 Z M 69.53125 -103.625 L 69.53125 -34.09375 L 126.25 -34.09375 C 142.21875 -34.09375 153.800781 -37.070312 161 -43.03125 C 168.207031 -49 171.8125 -57.722656 171.8125 -69.203125 C 171.8125 -78.648438 167.816406 -86.75 159.828125 -93.5 C 151.835938 -100.25 141.09375 -103.625 127.59375 -103.625 Z M 69.53125 -202.1875 L 69.53125 -136.375 L 121.859375 -136.375 C 135.128906 -136.375 145.363281 -139.351562 152.5625 -145.3125 C 159.769531 -151.28125 163.375 -158.425781 163.375 -166.75 C 163.375 -178.894531 159.488281 -187.835938 151.71875 -193.578125 C 143.957031 -199.316406 132.765625 -202.1875 118.140625 -202.1875 Z M 69.53125 -202.1875 "/></g></g></g></svg>